<mxfile host="app.diagrams.net" modified="2022-12-08T01:29:43.775Z" agent="5.0 (Windows NT 10.0; Win64; x64) AppleWebKit/537.36 (KHTML, like Gecko) Chrome/108.0.0.0 Safari/537.36 Edg/108.0.1462.42" etag="xQrp3B3Kgldkm_pMNKYQ" version="20.6.0" type="github">
  <diagram id="R2lEEEUBdFMjLlhIrx00" name="Page-1">
    <mxGraphModel dx="1157" dy="705" grid="1" gridSize="10" guides="1" tooltips="1" connect="1" arrows="1" fold="1" page="1" pageScale="1" pageWidth="1169" pageHeight="827" math="0" shadow="0" extFonts="Permanent Marker^https://fonts.googleapis.com/css?family=Permanent+Marker">
      <root>
        <mxCell id="0" />
        <mxCell id="1" parent="0" />
        <mxCell id="7aotdKkFnBZWeoV24bbZ-1" value="Employee" style="whiteSpace=wrap;html=1;align=center;fontSize=20;" vertex="1" parent="1">
          <mxGeometry x="240" y="440" width="160" height="80" as="geometry" />
        </mxCell>
        <mxCell id="7aotdKkFnBZWeoV24bbZ-2" value="Department" style="whiteSpace=wrap;html=1;align=center;fontSize=20;" vertex="1" parent="1">
          <mxGeometry x="520" y="160" width="160" height="80" as="geometry" />
        </mxCell>
        <mxCell id="7aotdKkFnBZWeoV24bbZ-3" value="Project" style="whiteSpace=wrap;html=1;align=center;fontSize=20;" vertex="1" parent="1">
          <mxGeometry x="800" y="440" width="160" height="80" as="geometry" />
        </mxCell>
        <mxCell id="7aotdKkFnBZWeoV24bbZ-4" value="&lt;font style=&quot;font-size: 18px;&quot;&gt;Work in&lt;/font&gt;" style="shape=rhombus;perimeter=rhombusPerimeter;whiteSpace=wrap;html=1;align=center;fontSize=18;" vertex="1" parent="1">
          <mxGeometry x="480" y="360" width="160" height="80" as="geometry" />
        </mxCell>
        <mxCell id="7aotdKkFnBZWeoV24bbZ-5" value="Lead" style="shape=rhombus;perimeter=rhombusPerimeter;whiteSpace=wrap;html=1;align=center;fontSize=18;" vertex="1" parent="1">
          <mxGeometry x="660" y="300" width="160" height="80" as="geometry" />
        </mxCell>
        <mxCell id="7aotdKkFnBZWeoV24bbZ-6" value="" style="endArrow=none;html=1;rounded=0;fontSize=18;exitX=0.5;exitY=0;exitDx=0;exitDy=0;entryX=0.25;entryY=1;entryDx=0;entryDy=0;" edge="1" parent="1" source="7aotdKkFnBZWeoV24bbZ-4" target="7aotdKkFnBZWeoV24bbZ-2">
          <mxGeometry relative="1" as="geometry">
            <mxPoint x="560" y="470" as="sourcePoint" />
            <mxPoint x="720" y="470" as="targetPoint" />
          </mxGeometry>
        </mxCell>
        <mxCell id="7aotdKkFnBZWeoV24bbZ-7" value="1" style="resizable=0;html=1;align=right;verticalAlign=bottom;fontSize=18;" connectable="0" vertex="1" parent="7aotdKkFnBZWeoV24bbZ-6">
          <mxGeometry x="1" relative="1" as="geometry">
            <mxPoint x="20" y="30" as="offset" />
          </mxGeometry>
        </mxCell>
        <mxCell id="7aotdKkFnBZWeoV24bbZ-8" value="" style="endArrow=none;html=1;rounded=0;fontSize=18;exitX=0;exitY=0;exitDx=0;exitDy=0;entryX=0.75;entryY=1;entryDx=0;entryDy=0;" edge="1" parent="1" source="7aotdKkFnBZWeoV24bbZ-5" target="7aotdKkFnBZWeoV24bbZ-2">
          <mxGeometry relative="1" as="geometry">
            <mxPoint x="560" y="470" as="sourcePoint" />
            <mxPoint x="720" y="470" as="targetPoint" />
          </mxGeometry>
        </mxCell>
        <mxCell id="7aotdKkFnBZWeoV24bbZ-9" value="1" style="resizable=0;html=1;align=right;verticalAlign=bottom;fontSize=18;" connectable="0" vertex="1" parent="7aotdKkFnBZWeoV24bbZ-8">
          <mxGeometry x="1" relative="1" as="geometry">
            <mxPoint y="30" as="offset" />
          </mxGeometry>
        </mxCell>
        <mxCell id="7aotdKkFnBZWeoV24bbZ-10" value="" style="endArrow=none;html=1;rounded=0;fontSize=18;entryX=1;entryY=0;entryDx=0;entryDy=0;exitX=0;exitY=0.5;exitDx=0;exitDy=0;" edge="1" parent="1" source="7aotdKkFnBZWeoV24bbZ-4" target="7aotdKkFnBZWeoV24bbZ-1">
          <mxGeometry relative="1" as="geometry">
            <mxPoint x="440" y="414" as="sourcePoint" />
            <mxPoint x="600" y="414" as="targetPoint" />
          </mxGeometry>
        </mxCell>
        <mxCell id="7aotdKkFnBZWeoV24bbZ-11" value="M" style="resizable=0;html=1;align=right;verticalAlign=bottom;fontSize=18;" connectable="0" vertex="1" parent="7aotdKkFnBZWeoV24bbZ-10">
          <mxGeometry x="1" relative="1" as="geometry">
            <mxPoint x="30" y="20" as="offset" />
          </mxGeometry>
        </mxCell>
        <mxCell id="7aotdKkFnBZWeoV24bbZ-12" value="" style="endArrow=none;html=1;rounded=0;fontSize=18;exitX=1;exitY=1;exitDx=0;exitDy=0;entryX=0.25;entryY=0;entryDx=0;entryDy=0;" edge="1" parent="1" source="7aotdKkFnBZWeoV24bbZ-5" target="7aotdKkFnBZWeoV24bbZ-3">
          <mxGeometry relative="1" as="geometry">
            <mxPoint x="570" y="480" as="sourcePoint" />
            <mxPoint x="730" y="480" as="targetPoint" />
          </mxGeometry>
        </mxCell>
        <mxCell id="7aotdKkFnBZWeoV24bbZ-13" value="M" style="resizable=0;html=1;align=right;verticalAlign=bottom;fontSize=18;" connectable="0" vertex="1" parent="7aotdKkFnBZWeoV24bbZ-12">
          <mxGeometry x="1" relative="1" as="geometry">
            <mxPoint x="-20" as="offset" />
          </mxGeometry>
        </mxCell>
        <mxCell id="7aotdKkFnBZWeoV24bbZ-14" value="&lt;font style=&quot;font-size: 18px;&quot;&gt;Managed by&lt;/font&gt;" style="shape=rhombus;perimeter=rhombusPerimeter;whiteSpace=wrap;html=1;align=center;fontSize=18;" vertex="1" parent="1">
          <mxGeometry x="80" y="320" width="160" height="80" as="geometry" />
        </mxCell>
        <mxCell id="7aotdKkFnBZWeoV24bbZ-15" value="" style="endArrow=none;html=1;rounded=0;fontSize=18;exitX=1;exitY=0.5;exitDx=0;exitDy=0;entryX=0.25;entryY=0;entryDx=0;entryDy=0;" edge="1" parent="1" source="7aotdKkFnBZWeoV24bbZ-14" target="7aotdKkFnBZWeoV24bbZ-1">
          <mxGeometry relative="1" as="geometry">
            <mxPoint x="510" y="330" as="sourcePoint" />
            <mxPoint x="570" y="250" as="targetPoint" />
          </mxGeometry>
        </mxCell>
        <mxCell id="7aotdKkFnBZWeoV24bbZ-16" value="1" style="resizable=0;html=1;align=right;verticalAlign=bottom;fontSize=18;" connectable="0" vertex="1" parent="7aotdKkFnBZWeoV24bbZ-15">
          <mxGeometry x="1" relative="1" as="geometry">
            <mxPoint x="10" as="offset" />
          </mxGeometry>
        </mxCell>
        <mxCell id="7aotdKkFnBZWeoV24bbZ-17" value="" style="endArrow=none;html=1;rounded=0;fontSize=18;entryX=0;entryY=0.25;entryDx=0;entryDy=0;exitX=0.5;exitY=1;exitDx=0;exitDy=0;" edge="1" parent="1" source="7aotdKkFnBZWeoV24bbZ-14" target="7aotdKkFnBZWeoV24bbZ-1">
          <mxGeometry relative="1" as="geometry">
            <mxPoint x="430" y="370" as="sourcePoint" />
            <mxPoint x="370" y="450" as="targetPoint" />
          </mxGeometry>
        </mxCell>
        <mxCell id="7aotdKkFnBZWeoV24bbZ-18" value="M" style="resizable=0;html=1;align=right;verticalAlign=bottom;fontSize=18;" connectable="0" vertex="1" parent="7aotdKkFnBZWeoV24bbZ-17">
          <mxGeometry x="1" relative="1" as="geometry">
            <mxPoint x="-20" y="10" as="offset" />
          </mxGeometry>
        </mxCell>
        <mxCell id="7aotdKkFnBZWeoV24bbZ-19" value="&lt;font style=&quot;font-size: 18px;&quot;&gt;Participation&lt;/font&gt;" style="shape=rhombus;perimeter=rhombusPerimeter;whiteSpace=wrap;html=1;align=center;fontSize=18;" vertex="1" parent="1">
          <mxGeometry x="520" y="560" width="160" height="80" as="geometry" />
        </mxCell>
        <mxCell id="7aotdKkFnBZWeoV24bbZ-20" value="" style="endArrow=none;html=1;rounded=0;fontSize=18;entryX=0;entryY=1;entryDx=0;entryDy=0;exitX=1;exitY=0.5;exitDx=0;exitDy=0;" edge="1" parent="1" source="7aotdKkFnBZWeoV24bbZ-19" target="7aotdKkFnBZWeoV24bbZ-3">
          <mxGeometry relative="1" as="geometry">
            <mxPoint x="460" y="580" as="sourcePoint" />
            <mxPoint x="620" y="580" as="targetPoint" />
          </mxGeometry>
        </mxCell>
        <mxCell id="7aotdKkFnBZWeoV24bbZ-21" value="N" style="resizable=0;html=1;align=right;verticalAlign=bottom;fontSize=18;" connectable="0" vertex="1" parent="7aotdKkFnBZWeoV24bbZ-20">
          <mxGeometry x="1" relative="1" as="geometry">
            <mxPoint x="-10" y="10" as="offset" />
          </mxGeometry>
        </mxCell>
        <mxCell id="7aotdKkFnBZWeoV24bbZ-23" value="" style="endArrow=none;html=1;rounded=0;fontSize=18;entryX=1;entryY=1;entryDx=0;entryDy=0;exitX=0;exitY=0.5;exitDx=0;exitDy=0;" edge="1" parent="1" source="7aotdKkFnBZWeoV24bbZ-19" target="7aotdKkFnBZWeoV24bbZ-1">
          <mxGeometry relative="1" as="geometry">
            <mxPoint x="430" y="370" as="sourcePoint" />
            <mxPoint x="370" y="450" as="targetPoint" />
          </mxGeometry>
        </mxCell>
        <mxCell id="7aotdKkFnBZWeoV24bbZ-24" value="M" style="resizable=0;html=1;align=right;verticalAlign=bottom;fontSize=18;" connectable="0" vertex="1" parent="7aotdKkFnBZWeoV24bbZ-23">
          <mxGeometry x="1" relative="1" as="geometry">
            <mxPoint x="30" y="10" as="offset" />
          </mxGeometry>
        </mxCell>
        <mxCell id="7aotdKkFnBZWeoV24bbZ-25" value="Position" style="ellipse;whiteSpace=wrap;html=1;align=center;fontSize=16;" vertex="1" parent="1">
          <mxGeometry x="430" y="640" width="100" height="40" as="geometry" />
        </mxCell>
        <mxCell id="7aotdKkFnBZWeoV24bbZ-26" value="Date" style="ellipse;whiteSpace=wrap;html=1;align=center;fontSize=16;" vertex="1" parent="1">
          <mxGeometry x="550" y="680" width="100" height="40" as="geometry" />
        </mxCell>
        <mxCell id="7aotdKkFnBZWeoV24bbZ-27" value="Duration" style="ellipse;whiteSpace=wrap;html=1;align=center;fontSize=16;" vertex="1" parent="1">
          <mxGeometry x="670" y="640" width="100" height="40" as="geometry" />
        </mxCell>
        <mxCell id="7aotdKkFnBZWeoV24bbZ-28" value="" style="endArrow=none;html=1;rounded=0;fontSize=18;exitX=1;exitY=0;exitDx=0;exitDy=0;entryX=0;entryY=1;entryDx=0;entryDy=0;" edge="1" parent="1" source="7aotdKkFnBZWeoV24bbZ-25" target="7aotdKkFnBZWeoV24bbZ-19">
          <mxGeometry relative="1" as="geometry">
            <mxPoint x="460" y="580" as="sourcePoint" />
            <mxPoint x="620" y="580" as="targetPoint" />
          </mxGeometry>
        </mxCell>
        <mxCell id="7aotdKkFnBZWeoV24bbZ-29" value="" style="endArrow=none;html=1;rounded=0;fontSize=18;exitX=0;exitY=0;exitDx=0;exitDy=0;entryX=1;entryY=1;entryDx=0;entryDy=0;" edge="1" parent="1" source="7aotdKkFnBZWeoV24bbZ-27" target="7aotdKkFnBZWeoV24bbZ-19">
          <mxGeometry relative="1" as="geometry">
            <mxPoint x="649.9953390593274" y="639.9978643762691" as="sourcePoint" />
            <mxPoint x="694.64" y="614.14" as="targetPoint" />
          </mxGeometry>
        </mxCell>
        <mxCell id="7aotdKkFnBZWeoV24bbZ-30" value="" style="endArrow=none;html=1;rounded=0;fontSize=18;exitX=0.5;exitY=1;exitDx=0;exitDy=0;entryX=0.5;entryY=0;entryDx=0;entryDy=0;" edge="1" parent="1" source="7aotdKkFnBZWeoV24bbZ-19" target="7aotdKkFnBZWeoV24bbZ-26">
          <mxGeometry relative="1" as="geometry">
            <mxPoint x="460" y="580" as="sourcePoint" />
            <mxPoint x="620" y="580" as="targetPoint" />
          </mxGeometry>
        </mxCell>
        <mxCell id="7aotdKkFnBZWeoV24bbZ-31" value="Manage" style="shape=rhombus;perimeter=rhombusPerimeter;whiteSpace=wrap;html=1;align=center;fontSize=18;" vertex="1" parent="1">
          <mxGeometry x="280" y="240" width="160" height="80" as="geometry" />
        </mxCell>
        <mxCell id="7aotdKkFnBZWeoV24bbZ-32" value="" style="endArrow=none;html=1;rounded=0;fontSize=18;exitX=0.5;exitY=1;exitDx=0;exitDy=0;entryX=0.75;entryY=0;entryDx=0;entryDy=0;" edge="1" parent="1" source="7aotdKkFnBZWeoV24bbZ-31" target="7aotdKkFnBZWeoV24bbZ-1">
          <mxGeometry relative="1" as="geometry">
            <mxPoint x="440" y="380" as="sourcePoint" />
            <mxPoint x="360" y="410" as="targetPoint" />
          </mxGeometry>
        </mxCell>
        <mxCell id="7aotdKkFnBZWeoV24bbZ-33" value="M" style="resizable=0;html=1;align=right;verticalAlign=bottom;fontSize=18;" connectable="0" vertex="1" parent="7aotdKkFnBZWeoV24bbZ-32">
          <mxGeometry x="1" relative="1" as="geometry">
            <mxPoint x="20" as="offset" />
          </mxGeometry>
        </mxCell>
        <mxCell id="7aotdKkFnBZWeoV24bbZ-34" value="" style="endArrow=none;html=1;rounded=0;fontSize=18;exitX=1;exitY=0.5;exitDx=0;exitDy=0;entryX=0;entryY=1;entryDx=0;entryDy=0;" edge="1" parent="1" source="7aotdKkFnBZWeoV24bbZ-31" target="7aotdKkFnBZWeoV24bbZ-2">
          <mxGeometry relative="1" as="geometry">
            <mxPoint x="460" y="370" as="sourcePoint" />
            <mxPoint x="620" y="370" as="targetPoint" />
          </mxGeometry>
        </mxCell>
        <mxCell id="7aotdKkFnBZWeoV24bbZ-35" value="1" style="resizable=0;html=1;align=right;verticalAlign=bottom;fontSize=18;" connectable="0" vertex="1" parent="7aotdKkFnBZWeoV24bbZ-34">
          <mxGeometry x="1" relative="1" as="geometry">
            <mxPoint x="-10" as="offset" />
          </mxGeometry>
        </mxCell>
        <mxCell id="7aotdKkFnBZWeoV24bbZ-36" value="AcceptanceDate" style="ellipse;whiteSpace=wrap;html=1;align=center;fontSize=16;" vertex="1" parent="1">
          <mxGeometry x="190" y="200" width="140" height="40" as="geometry" />
        </mxCell>
        <mxCell id="7aotdKkFnBZWeoV24bbZ-37" value="" style="endArrow=none;html=1;rounded=0;fontSize=18;exitX=0;exitY=0;exitDx=0;exitDy=0;entryX=1;entryY=1;entryDx=0;entryDy=0;" edge="1" parent="1" source="7aotdKkFnBZWeoV24bbZ-31" target="7aotdKkFnBZWeoV24bbZ-36">
          <mxGeometry relative="1" as="geometry">
            <mxPoint x="460" y="370" as="sourcePoint" />
            <mxPoint x="620" y="370" as="targetPoint" />
          </mxGeometry>
        </mxCell>
        <mxCell id="7aotdKkFnBZWeoV24bbZ-38" value="Name" style="ellipse;whiteSpace=wrap;html=1;align=center;fontSize=16;" vertex="1" parent="1">
          <mxGeometry x="550" y="80" width="100" height="40" as="geometry" />
        </mxCell>
        <mxCell id="7aotdKkFnBZWeoV24bbZ-40" value="Location" style="ellipse;whiteSpace=wrap;html=1;align=center;fontSize=16;" vertex="1" parent="1">
          <mxGeometry x="710" y="110" width="100" height="40" as="geometry" />
        </mxCell>
        <mxCell id="7aotdKkFnBZWeoV24bbZ-41" value="" style="endArrow=none;html=1;rounded=0;fontSize=16;entryX=0;entryY=0;entryDx=0;entryDy=0;exitX=1;exitY=1;exitDx=0;exitDy=0;" edge="1" parent="1" source="7aotdKkFnBZWeoV24bbZ-45" target="7aotdKkFnBZWeoV24bbZ-2">
          <mxGeometry relative="1" as="geometry">
            <mxPoint x="475" y="170" as="sourcePoint" />
            <mxPoint x="620" y="370" as="targetPoint" />
          </mxGeometry>
        </mxCell>
        <mxCell id="7aotdKkFnBZWeoV24bbZ-42" value="" style="endArrow=none;html=1;rounded=0;fontSize=16;exitX=0.5;exitY=0;exitDx=0;exitDy=0;entryX=0.5;entryY=1;entryDx=0;entryDy=0;" edge="1" parent="1" source="7aotdKkFnBZWeoV24bbZ-2" target="7aotdKkFnBZWeoV24bbZ-38">
          <mxGeometry relative="1" as="geometry">
            <mxPoint x="460" y="370" as="sourcePoint" />
            <mxPoint x="620" y="370" as="targetPoint" />
          </mxGeometry>
        </mxCell>
        <mxCell id="7aotdKkFnBZWeoV24bbZ-43" value="" style="endArrow=none;html=1;rounded=0;fontSize=16;exitX=1;exitY=0;exitDx=0;exitDy=0;entryX=0;entryY=1;entryDx=0;entryDy=0;" edge="1" parent="1" source="7aotdKkFnBZWeoV24bbZ-2" target="7aotdKkFnBZWeoV24bbZ-40">
          <mxGeometry relative="1" as="geometry">
            <mxPoint x="460" y="370" as="sourcePoint" />
            <mxPoint x="620" y="370" as="targetPoint" />
          </mxGeometry>
        </mxCell>
        <mxCell id="7aotdKkFnBZWeoV24bbZ-45" value="DeptCode" style="ellipse;whiteSpace=wrap;html=1;align=center;fontStyle=4;fontSize=16;" vertex="1" parent="1">
          <mxGeometry x="390" y="110" width="100" height="40" as="geometry" />
        </mxCell>
        <mxCell id="7aotdKkFnBZWeoV24bbZ-46" value="ProjCode" style="ellipse;whiteSpace=wrap;html=1;align=center;fontStyle=4;fontSize=16;" vertex="1" parent="1">
          <mxGeometry x="830" y="360" width="100" height="40" as="geometry" />
        </mxCell>
        <mxCell id="7aotdKkFnBZWeoV24bbZ-47" value="Name" style="ellipse;whiteSpace=wrap;html=1;align=center;fontSize=16;" vertex="1" parent="1">
          <mxGeometry x="950" y="370" width="100" height="40" as="geometry" />
        </mxCell>
        <mxCell id="7aotdKkFnBZWeoV24bbZ-48" value="Budget" style="ellipse;whiteSpace=wrap;html=1;align=center;fontSize=16;" vertex="1" parent="1">
          <mxGeometry x="990" y="430" width="100" height="40" as="geometry" />
        </mxCell>
        <mxCell id="7aotdKkFnBZWeoV24bbZ-49" value="StartDate" style="ellipse;whiteSpace=wrap;html=1;align=center;fontSize=16;" vertex="1" parent="1">
          <mxGeometry x="990" y="490" width="100" height="40" as="geometry" />
        </mxCell>
        <mxCell id="7aotdKkFnBZWeoV24bbZ-50" value="ImpDate" style="ellipse;whiteSpace=wrap;html=1;align=center;fontSize=16;" vertex="1" parent="1">
          <mxGeometry x="950" y="550" width="100" height="40" as="geometry" />
        </mxCell>
        <mxCell id="7aotdKkFnBZWeoV24bbZ-51" value="Location" style="ellipse;whiteSpace=wrap;html=1;align=center;fontSize=16;" vertex="1" parent="1">
          <mxGeometry x="830" y="560" width="100" height="40" as="geometry" />
        </mxCell>
        <mxCell id="7aotdKkFnBZWeoV24bbZ-52" value="" style="endArrow=none;html=1;rounded=0;fontSize=16;exitX=0.5;exitY=0;exitDx=0;exitDy=0;entryX=0.5;entryY=1;entryDx=0;entryDy=0;" edge="1" parent="1" source="7aotdKkFnBZWeoV24bbZ-3" target="7aotdKkFnBZWeoV24bbZ-46">
          <mxGeometry relative="1" as="geometry">
            <mxPoint x="680" y="370" as="sourcePoint" />
            <mxPoint x="840" y="370" as="targetPoint" />
          </mxGeometry>
        </mxCell>
        <mxCell id="7aotdKkFnBZWeoV24bbZ-53" value="" style="endArrow=none;html=1;rounded=0;fontSize=16;entryX=0;entryY=1;entryDx=0;entryDy=0;" edge="1" parent="1" target="7aotdKkFnBZWeoV24bbZ-47">
          <mxGeometry relative="1" as="geometry">
            <mxPoint x="920" y="440" as="sourcePoint" />
            <mxPoint x="1080" y="440" as="targetPoint" />
          </mxGeometry>
        </mxCell>
        <mxCell id="7aotdKkFnBZWeoV24bbZ-54" value="" style="endArrow=none;html=1;rounded=0;fontSize=16;exitX=1;exitY=0.25;exitDx=0;exitDy=0;entryX=0;entryY=0.5;entryDx=0;entryDy=0;" edge="1" parent="1" source="7aotdKkFnBZWeoV24bbZ-3" target="7aotdKkFnBZWeoV24bbZ-48">
          <mxGeometry relative="1" as="geometry">
            <mxPoint x="980" y="480" as="sourcePoint" />
            <mxPoint x="1140" y="480" as="targetPoint" />
          </mxGeometry>
        </mxCell>
        <mxCell id="7aotdKkFnBZWeoV24bbZ-55" value="" style="endArrow=none;html=1;rounded=0;fontSize=16;exitX=1;exitY=0.75;exitDx=0;exitDy=0;entryX=0;entryY=0.5;entryDx=0;entryDy=0;" edge="1" parent="1" source="7aotdKkFnBZWeoV24bbZ-3" target="7aotdKkFnBZWeoV24bbZ-49">
          <mxGeometry relative="1" as="geometry">
            <mxPoint x="680" y="370" as="sourcePoint" />
            <mxPoint x="840" y="370" as="targetPoint" />
          </mxGeometry>
        </mxCell>
        <mxCell id="7aotdKkFnBZWeoV24bbZ-56" value="" style="endArrow=none;html=1;rounded=0;fontSize=16;exitX=0.75;exitY=1;exitDx=0;exitDy=0;entryX=0;entryY=0;entryDx=0;entryDy=0;" edge="1" parent="1" source="7aotdKkFnBZWeoV24bbZ-3" target="7aotdKkFnBZWeoV24bbZ-50">
          <mxGeometry relative="1" as="geometry">
            <mxPoint x="680" y="370" as="sourcePoint" />
            <mxPoint x="840" y="370" as="targetPoint" />
          </mxGeometry>
        </mxCell>
        <mxCell id="7aotdKkFnBZWeoV24bbZ-57" value="" style="endArrow=none;html=1;rounded=0;fontSize=16;exitX=0.5;exitY=1;exitDx=0;exitDy=0;entryX=0.5;entryY=0;entryDx=0;entryDy=0;" edge="1" parent="1" source="7aotdKkFnBZWeoV24bbZ-3" target="7aotdKkFnBZWeoV24bbZ-51">
          <mxGeometry relative="1" as="geometry">
            <mxPoint x="680" y="370" as="sourcePoint" />
            <mxPoint x="840" y="370" as="targetPoint" />
          </mxGeometry>
        </mxCell>
        <mxCell id="7aotdKkFnBZWeoV24bbZ-58" value="EmpCode" style="ellipse;whiteSpace=wrap;html=1;align=center;fontStyle=4;fontSize=16;" vertex="1" parent="1">
          <mxGeometry x="70" y="460" width="100" height="40" as="geometry" />
        </mxCell>
        <mxCell id="7aotdKkFnBZWeoV24bbZ-59" value="" style="endArrow=none;html=1;rounded=0;fontSize=16;exitX=1;exitY=0.5;exitDx=0;exitDy=0;entryX=0;entryY=0.5;entryDx=0;entryDy=0;" edge="1" parent="1" source="7aotdKkFnBZWeoV24bbZ-58" target="7aotdKkFnBZWeoV24bbZ-1">
          <mxGeometry relative="1" as="geometry">
            <mxPoint x="360" y="480" as="sourcePoint" />
            <mxPoint x="240" y="500" as="targetPoint" />
          </mxGeometry>
        </mxCell>
        <mxCell id="7aotdKkFnBZWeoV24bbZ-60" value="Name" style="ellipse;whiteSpace=wrap;html=1;align=center;fontSize=16;" vertex="1" parent="1">
          <mxGeometry x="70" y="520" width="100" height="40" as="geometry" />
        </mxCell>
        <mxCell id="7aotdKkFnBZWeoV24bbZ-61" value="BirthDate" style="ellipse;whiteSpace=wrap;html=1;align=center;fontSize=16;" vertex="1" parent="1">
          <mxGeometry x="90" y="570" width="100" height="40" as="geometry" />
        </mxCell>
        <mxCell id="7aotdKkFnBZWeoV24bbZ-63" value="Address" style="ellipse;whiteSpace=wrap;html=1;align=center;fontSize=16;" vertex="1" parent="1">
          <mxGeometry x="190" y="600" width="100" height="40" as="geometry" />
        </mxCell>
        <mxCell id="7aotdKkFnBZWeoV24bbZ-64" value="Gender" style="ellipse;whiteSpace=wrap;html=1;align=center;fontSize=16;" vertex="1" parent="1">
          <mxGeometry x="270" y="560" width="100" height="40" as="geometry" />
        </mxCell>
        <mxCell id="7aotdKkFnBZWeoV24bbZ-65" value="SalaryLevel" style="ellipse;whiteSpace=wrap;html=1;align=center;fontSize=16;" vertex="1" parent="1">
          <mxGeometry x="350" y="600" width="100" height="40" as="geometry" />
        </mxCell>
        <mxCell id="7aotdKkFnBZWeoV24bbZ-66" value="" style="endArrow=none;html=1;rounded=0;fontSize=16;exitX=1;exitY=0.5;exitDx=0;exitDy=0;entryX=0;entryY=0.75;entryDx=0;entryDy=0;" edge="1" parent="1" source="7aotdKkFnBZWeoV24bbZ-60" target="7aotdKkFnBZWeoV24bbZ-1">
          <mxGeometry relative="1" as="geometry">
            <mxPoint x="360" y="480" as="sourcePoint" />
            <mxPoint x="520" y="480" as="targetPoint" />
          </mxGeometry>
        </mxCell>
        <mxCell id="7aotdKkFnBZWeoV24bbZ-67" value="" style="endArrow=none;html=1;rounded=0;fontSize=16;exitX=1;exitY=0;exitDx=0;exitDy=0;entryX=0;entryY=1;entryDx=0;entryDy=0;" edge="1" parent="1" source="7aotdKkFnBZWeoV24bbZ-61" target="7aotdKkFnBZWeoV24bbZ-1">
          <mxGeometry relative="1" as="geometry">
            <mxPoint x="360" y="480" as="sourcePoint" />
            <mxPoint x="520" y="480" as="targetPoint" />
          </mxGeometry>
        </mxCell>
        <mxCell id="7aotdKkFnBZWeoV24bbZ-68" value="" style="endArrow=none;html=1;rounded=0;fontSize=16;exitX=0.5;exitY=0;exitDx=0;exitDy=0;entryX=0.25;entryY=1;entryDx=0;entryDy=0;" edge="1" parent="1" source="7aotdKkFnBZWeoV24bbZ-63" target="7aotdKkFnBZWeoV24bbZ-1">
          <mxGeometry relative="1" as="geometry">
            <mxPoint x="360" y="480" as="sourcePoint" />
            <mxPoint x="520" y="480" as="targetPoint" />
          </mxGeometry>
        </mxCell>
        <mxCell id="7aotdKkFnBZWeoV24bbZ-69" value="" style="endArrow=none;html=1;rounded=0;fontSize=16;exitX=0.5;exitY=0;exitDx=0;exitDy=0;entryX=0.5;entryY=1;entryDx=0;entryDy=0;" edge="1" parent="1" source="7aotdKkFnBZWeoV24bbZ-64" target="7aotdKkFnBZWeoV24bbZ-1">
          <mxGeometry relative="1" as="geometry">
            <mxPoint x="360" y="480" as="sourcePoint" />
            <mxPoint x="520" y="480" as="targetPoint" />
          </mxGeometry>
        </mxCell>
        <mxCell id="7aotdKkFnBZWeoV24bbZ-70" value="" style="endArrow=none;html=1;rounded=0;fontSize=16;exitX=0.5;exitY=0;exitDx=0;exitDy=0;entryX=0.75;entryY=1;entryDx=0;entryDy=0;" edge="1" parent="1" source="7aotdKkFnBZWeoV24bbZ-65" target="7aotdKkFnBZWeoV24bbZ-1">
          <mxGeometry relative="1" as="geometry">
            <mxPoint x="360" y="480" as="sourcePoint" />
            <mxPoint x="520" y="480" as="targetPoint" />
          </mxGeometry>
        </mxCell>
      </root>
    </mxGraphModel>
  </diagram>
</mxfile>
